<svg viewBox="0 0 364.89 318.97" xmlns="http://www.w3.org/2000/svg"><ellipse cx="175.37" cy="155.95" rx="135.66" ry="101.76"/><path d="m175.37 47.31c-78.59 0-142.53 48.73-142.53 108.63s63.94 108.63 142.53 108.63 142.53-48.73 142.53-108.63-63.94-108.63-142.53-108.63zm0 210.4c-74.8 0-135.66-45.65-135.66-101.76s60.86-101.77 135.66-101.77 135.66 45.65 135.66 101.76-60.86 101.76-135.66 101.76z" fill="#38a5f5"/><path d="m13.54 278.38h334.01v33.72h-334.01z"/><path d="m275.14 271.51v-20.9h-217.53v20.9h-50.94v47.46h347.75v-47.46zm72.41 40.59h-334.01v-33.72h334.01z" fill="#38a5f5"/><path d="m239.88 77.91-1.24-17.38-.25-3.61-3.59.44-14.43 1.77 16.48-34.16 2.77-5.73-6.31.83-46.08 6.1-3.21.42.23 3.23.91 12.91.26 3.67 3.65-.51 13.79-1.92-17.42 32.42-2.71 5.05 5.73.01 47.98.14 3.7.01z"/><path d="m201.34 64.13-17.82-14.8 15.29-23.69 3.57-5.52-6.57.22-16.5.56-1.87.07-.96 1.61-6.39 10.73.07-8.79.03-3.68-3.68.23-17.75 1.1-3.62.23.43 3.6 6.19 52.36.31 2.65 2.65.35 11.91 1.57 3.82.5.07-3.84.22-11.91 14.21 12.33 2.29 1.98 2.25-2.01 11.94-10.64 2.98-2.66z"/><path d="m136.19 35.46c-1.68-.32-3.79-.72-5.17-1.15.5-.12 1.22-.21 2.19-.21.59 0 1.2.03 1.82.09 4.55.43 9.71 2.2 11.69 3.3l4.44 2.48.65-5.05 1.75-13.61.38-2.96-2.88-.79c-4.97-1.35-9.74-2.26-14.18-2.68-2.05-.19-4.05-.29-5.95-.29-15.36 0-24.44 6.52-25.57 18.36-1.27 13.32 11.67 17.05 20.24 19.52 2.87.83 8.2 2.36 8.65 3.53-.24 2.57-4.45 2.7-5.29 2.7-.47 0-.95-.02-1.44-.07-4.41-.42-9.27-2.63-13.33-6.07l-2.54-2.15-2.23 2.46-9.08 10.05-1.84 2.03 1.57 2.24c4.99 7.12 15.35 12.23 27.02 13.34 1.5.14 3.01.21 4.49.21 16.24 0 27.11-8.11 28.35-21.17 1.83-19.27-14.8-22.44-23.74-24.14z"/><path d="m279.88 194.2c-1.32 0-2.65.02-4 .07-3.82.14-7.96.45-12.67.96l-3.15.34.08 3.17 1.9 72.78.08 3.11 3.11.22c2.31.17 4.38.25 6.34.25.78 0 1.56-.01 2.34-.04 28.81-1.03 59.32-18.35 58.39-44.56-.8-22.39-20.88-36.29-52.42-36.29zm21.85 36.89c.21 5.78-4.35 12.16-14.7 13.77l.27-24.99c9.7.23 14.24 5.75 14.44 11.22z"/><path d="m278.63 260.16-1.4-20.02-.26-3.58-3.57.41-22.14 2.56-1.27-53.61-.09-3.76-3.73.43-24.91 2.86-3.34.39.31 3.34 7.18 76.55.32 3.47 3.47-.38 46.37-5.01 3.29-.35z"/><path d="m244.22 264.98-17.02-20.92c8.05-6.73 11.82-14.02 11.53-22.18-.54-15.13-14.02-23.81-36.98-23.81-1.06 0-2.12.02-3.19.06-7.65.27-15.33 1.4-22.21 3.25l-2.7.73.17 2.8 4.56 75.25.24 3.91 3.84-.74 21.4-4.12 3.23-.62-.48-3.25-2.61-17.77c.83-.35 1.72-.75 2.62-1.19l11.28 23.85 1.58 3.34 3.22-1.82 20.54-11.6 3.54-2-2.57-3.16zm-32.6-39.77c.12 3.32-4.5 6.77-11.37 8.75l-1.78-11.29c2.01-.56 4.64-1.14 7.16-1.23.2 0 .41-.01.61-.01 5.24 0 5.33 2.36 5.38 3.77z"/><path d="m187.48 234.2c-.72-20.23-14.96-40.7-40.78-40.7-.58 0-1.17.01-1.77.03-24.17.86-40.41 19.07-39.52 44.28.77 21.63 18.22 38.57 39.73 38.57.48 0 .97 0 1.45-.03 11.18-.4 21.49-4.64 29.05-11.95 8.04-7.77 12.24-18.5 11.82-30.21zm-32.52 12.73c-1.86 2.5-4.45 3.83-7.69 3.95-.22 0-.43.01-.64.01-8.74 0-12.08-6.74-12.28-12.52-.3-8.54 4.24-14.01 11.87-14.28h.45c6.98 0 10.86 6.07 11.07 12.07.15 4.33-.83 8.15-2.78 10.78z"/><path d="m311.67 82.92-4.01-1.51-27.02-10.19-2.76-1.04-1.45 2.57-21.07 37.49-21.22-37.79-1.4-2.48-2.7.91-40.45 13.74-4.54 1.54 2.91 3.8 40.5 52.83.58 52.31.04 3.7 3.69-.32 36.32-3.1 3.17-.27-.03-3.18-.43-48.27 37.52-57.15z"/><path d="m172.34 74.95c-35.14 0-59.69 25.64-59.69 62.35 0 32.56 25.38 58.07 57.77 58.07 35.12 0 61.61-25.41 61.61-59.1 0-30.47-20.5-61.32-59.69-61.32zm18.57 62.65c0 14.06-7.11 23.14-18.12 23.14-15.01 0-20.34-11.35-20.34-21.07 0-13.61 7.92-22.4 20.19-22.4 9.08 0 18.27 6.99 18.27 20.34z"/><path d="m122.55 194.22-23.18-6.75-3.3-.96-.96 3.29-9.01 30.88-4.4-19.87-.67-2.99-3.04.31-13.66 1.42-2.31.25-.63 2.23-4.1 14.38-3.52-25.65-.51-3.66-3.62.77-26.78 5.73-3.37.72.73 3.37 17.27 79.73.75 3.45 3.43-.85 20.07-4.97 1.94-.48.54-1.92 5.87-20.86 3.93 20.01.45 2.28 2.29.43 18.19 3.4 2.93.55.95-2.83 26.01-77.01 1.15-3.4z"/><path d="m139.14 66.79-97.73-5.31-3.61-.2-.02 3.62-.14 44.98-.01 3.62 3.62-.18 33.78-1.73-2.11 71.04-.12 3.99 3.96-.48 32.04-3.84 3.15-.37-.12-3.18-2.82-69.5 29.44-1.99 3.14-.21.06-3.14.74-33.61.07-3.33z"/><path d="m306.8 253.63c-2.98 1.45-6.14 2.71-9.43 3.76 3.29-1.05 6.45-2.31 9.43-3.76z" fill="none"/><path d="m315.14 248.72c-1.93 1.36-3.98 2.62-6.15 3.78 2.16-1.16 4.22-2.42 6.15-3.78z" fill="none"/><path d="m281.86 260.61c-1.78.19-3.58.31-5.38.38 1.8-.06 3.6-.19 5.38-.38z" fill="none"/><path d="m286.59 205.97c.59-.02 1.18-.14 1.67-.16-.49.02-1.08.14-1.67.16z" fill="none"/><path d="m297.37 257.38c-2.47.79-5.01 1.45-7.6 1.99 2.59-.54 5.13-1.21 7.6-1.99z" fill="none"/><path d="m324.96 239.48c-.88 1.14-1.83 2.25-2.86 3.32 1.03-1.07 1.98-2.17 2.86-3.32z" fill="none"/><path d="m329.26 232.22c-.55 1.27-1.18 2.52-1.9 3.73.72-1.21 1.35-2.45 1.9-3.73z" fill="none"/><path d="m320.51 244.37c-1.1 1.03-2.26 2.02-3.48 2.97 1.22-.95 2.39-1.94 3.48-2.97z" fill="none"/><path d="m289.99 209.23-.27 24.99c10.35-1.6 14.91-7.98 14.7-13.77-.2-5.47-4.74-11-14.44-11.22z" fill="none"/><path d="m315.31 198.2c-7.96-5.04-19.28-7.7-32.74-7.7-1.25 0-2.51.02-3.75.07-2.76.1-5.71.29-8.96.6l1.73 66.3c.93.04 1.82.05 2.68.05.7 0 1.4-.01 2.09-.04 13.58-.48 26.98-4.72 36.76-11.62 9.98-7.04 15.28-16.19 14.94-25.76-.33-9.39-4.62-16.76-12.75-21.9zm-28.92 43.3-3.69.16.04-3.69.34-32.04.04-3.34 3.34-.12c.16 0 .38-.03.61-.06.32-.04.67-.08 1.06-.1.41-.01.82-.02 1.23-.02 14.67 0 21.68 9.29 21.99 17.92.47 13.27-12.2 20.75-24.96 21.29z" fill="#fff"/><path d="m331.56 219.98c-.78-21.99-21.23-32.98-48.99-32.98-1.28 0-2.57.02-3.88.07-4.14.15-8.28.49-12.42.94l1.9 72.78c2.04.15 4.07.24 6.1.24.74 0 1.47-.01 2.21-.04 1.8-.06 3.6-.19 5.38-.38 2.67-.28 5.31-.69 7.91-1.23s5.13-1.21 7.6-1.99c3.29-1.05 6.45-2.31 9.43-3.76.74-.36 1.48-.74 2.2-1.12 2.16-1.16 4.22-2.42 6.15-3.78.64-.45 1.27-.92 1.88-1.39 1.22-.95 2.39-1.94 3.48-2.97.55-.51 1.08-1.04 1.59-1.57 1.03-1.07 1.98-2.17 2.86-3.32.88-1.14 1.68-2.32 2.4-3.53s1.35-2.45 1.9-3.73c1.64-3.82 2.46-7.92 2.31-12.24zm-18.44 25.88c-9.78 6.9-23.18 11.14-36.76 11.62-.68.02-1.39.04-2.09.04-.86 0-1.75-.02-2.68-.05l-1.73-66.3c3.25-.3 6.2-.5 8.96-.6 1.24-.04 2.51-.07 3.75-.07 13.46 0 24.78 2.66 32.74 7.7 8.13 5.15 12.42 12.52 12.75 21.9.34 9.57-4.97 18.72-14.94 25.76z" fill="#38a5f5"/><path d="m289.36 202.29c-.4 0-.81 0-1.23.02-.38.01-.74.06-1.06.1-.23.03-.46.06-.61.06l-3.34.12-.04 3.34-.34 32.04-.04 3.69 3.69-.16c12.76-.54 25.43-8.02 24.96-21.29-.31-8.63-7.32-17.92-21.99-17.92zm0 3.5c11.92 0 18.22 7.07 18.49 14.54.3 8.29-6.81 17.04-21.61 17.67l.34-32.04c.59-.02 1.18-.14 1.67-.16.37-.01.74-.02 1.1-.02z" fill="#38a5f5"/><path d="m282.58 183.57c-1.32 0-2.65.02-4 .07-3.81.14-7.95.45-12.67.96l-3.15.34.08 3.17 1.9 72.78.08 3.11 3.11.22c2.32.17 4.39.25 6.34.25.78 0 1.56-.01 2.33-.04 28.81-1.03 59.32-18.35 58.39-44.56-.8-22.39-20.88-36.29-52.42-36.29zm34.44 63.76c-.61.47-1.24.94-1.88 1.39-1.93 1.36-3.98 2.62-6.15 3.78-.72.39-1.46.76-2.2 1.12-2.98 1.45-6.14 2.71-9.43 3.76-2.47.79-5.01 1.45-7.6 1.99s-5.23.96-7.91 1.23c-1.78.19-3.58.31-5.38.38-.74.03-1.47.04-2.21.04-2.03 0-4.06-.09-6.1-.24l-1.9-72.78c4.14-.45 8.28-.79 12.42-.94 1.31-.05 2.6-.07 3.88-.07 27.76 0 48.2 10.99 48.99 32.98.15 4.31-.67 8.41-2.31 12.24-.55 1.27-1.18 2.52-1.9 3.73s-1.52 2.39-2.4 3.53-1.83 2.25-2.86 3.32c-.51.53-1.04 1.06-1.59 1.57-1.1 1.03-2.26 2.02-3.48 2.97z"/><path d="m289.36 205.79c-.36 0-.73 0-1.1.02-.49.02-1.08.14-1.67.16l-.34 32.04c14.8-.62 21.91-9.38 21.61-17.67-.27-7.47-6.57-14.54-18.49-14.54zm.36 28.43.27-24.99c9.7.23 14.24 5.75 14.44 11.22.21 5.78-4.35 12.16-14.7 13.77z"/><path d="m277.9 249.76-46.38 5.02 46.38-5.02-1.41-20.01z" fill="none"/><path d="m273.26 233.65-22.25 2.57-3.82.44-.09-3.83-1.26-53.55-17.69 2.04 6.52 69.6 39.5-4.27z" fill="#fff"/><path d="m276.49 229.75-25.89 3-1.35-57.38-24.91 2.87 7.18 76.55 46.38-5.01-1.41-20.02zm-30.65-50.47 1.26 53.55.09 3.84 3.81-.44 22.25-2.58.91 13-39.5 4.27-6.52-69.6 17.69-2.04z" fill="#38a5f5"/><path d="m281.32 249.52-1.41-20.02-.25-3.59-3.57.41-22.15 2.56-1.26-53.62-.09-3.76-3.74.43-24.91 2.87-3.34.38.31 3.35 7.18 76.55.33 3.47 3.46-.37 46.38-5.01 3.29-.36-.23-3.3zm-32.07-74.15 1.35 57.38 25.89-3 1.41 20.02-46.38 5.01-7.18-76.55 24.91-2.87z"/><path d="m211.48 224.84c-.87.53-1.82 1.02-2.83 1.48 1.01-.45 1.96-.95 2.83-1.48z" fill="none"/><path d="m205.91 266.61-3-20.45z" fill="none"/><path d="m213.87 223.16c2.51-2.08 3.97-4.56 3.87-7.28.1 2.72-1.37 5.19-3.87 7.28z" fill="none"/><path d="m213.87 223.16c-.72.6-1.52 1.16-2.39 1.69.87-.53 1.68-1.09 2.39-1.69z" fill="none"/><path d="m225.02 234.3 19.23 23.63z" fill="none"/><path d="m208.94 212.23c-.2 0-.41 0-.61.01-2.52.09-5.15.67-7.16 1.23l1.78 11.29c6.87-1.98 11.49-5.44 11.37-8.75-.05-1.41-.13-3.77-5.38-3.77z" fill="none"/><path d="m222.31 236.51-2.32-2.85 2.96-2.18c8.01-5.89 11.78-11.96 11.55-18.57-.55-15.45-21.2-17.12-30.05-17.12-.97 0-1.96.02-2.94.05-6.13.22-12.25 1.02-17.89 2.33l4.14 68.37 14.2-2.74-2.52-17.14-.41-2.8 2.65-.99c1.98-.74 4.88-1.95 7.39-3.46l3.32-2 1.66 3.5 11.22 23.72 13.65-7.71zm-21.52-4.12-3.56.7-.56-3.59-2.81-17.89-.45-2.88 2.75-.96c2.42-.85 7.18-2.29 11.92-2.46.28-.01.57-.02.86-.02 7.47 0 12.07 3.91 12.31 10.46.27 7.63-7.75 14.16-20.45 16.64z" fill="#fff"/><path d="m225.02 234.3c2.12-1.56 4.01-3.16 5.64-4.82.82-.83 1.57-1.68 2.26-2.53 3.45-4.3 5.25-8.97 5.07-14.16-.53-14.93-16.01-20.5-33.54-20.5-1.01 0-2.04.02-3.06.06-7.21.26-14.68 1.31-21.43 3.14l4.56 75.25 21.4-4.12-3-20.45c2.34-.88 5.36-2.17 7.97-3.75l12.83 27.12 20.54-11.6-19.23-23.63zm-12.63 3.12-3.32 2c-2.51 1.52-5.41 2.72-7.39 3.46l-2.65.99.41 2.8 2.52 17.14-14.2 2.74-4.14-68.37c5.64-1.31 11.77-2.11 17.89-2.33.98-.04 1.97-.05 2.94-.05 8.85 0 29.5 1.67 30.05 17.12.24 6.61-3.54 12.68-11.55 18.57l-2.96 2.18 2.32 2.85 16.61 20.41-13.65 7.71-11.22-23.72z" fill="#38a5f5"/><path d="m208.94 205.29c-.29 0-.58 0-.86.02-4.74.17-9.51 1.61-11.92 2.46l-2.75.96.45 2.88 2.81 17.89.56 3.59 3.56-.7c12.69-2.48 20.72-9.01 20.45-16.64-.23-6.55-4.83-10.46-12.31-10.46zm4.93 17.87c-.72.6-1.52 1.16-2.39 1.69s-1.82 1.02-2.83 1.48c-2.52 1.14-5.43 2.03-8.52 2.64l-2.81-17.89c2.83-.99 7.04-2.13 10.89-2.27.25 0 .49-.01.74-.01 1.45 0 2.83.16 4.06.55.49.15.95.35 1.39.58.43.23.83.5 1.2.82.55.47 1.01 1.05 1.36 1.74s.6 1.49.73 2.43c.04.31.07.64.08.98.1 2.72-1.37 5.19-3.87 7.28z" fill="#38a5f5"/><path d="m246.91 255.76-17.02-20.92c8.05-6.73 11.82-14.02 11.53-22.18-.54-15.13-14.02-23.81-36.98-23.81-1.06 0-2.12.02-3.19.06-7.66.27-15.34 1.4-22.21 3.25l-2.7.73.17 2.79 4.56 75.25.24 3.91 3.84-.74 21.4-4.12 3.23-.62-.48-3.25-2.61-17.77c.83-.35 1.72-.75 2.62-1.19l11.28 23.85 1.58 3.34 3.22-1.82 20.54-11.6 3.54-2-2.57-3.16zm-23.2 13.77-12.83-27.12c-2.61 1.58-5.63 2.87-7.97 3.75l3 20.45-21.4 4.12-4.56-75.25c6.75-1.82 14.23-2.88 21.43-3.14 1.03-.04 2.05-.06 3.06-.06 17.54 0 33.01 5.57 33.54 20.5.18 5.18-1.62 9.86-5.07 14.16-.69.86-1.44 1.7-2.26 2.53-.41.42-.83.83-1.27 1.24-1.32 1.23-2.78 2.42-4.37 3.59s19.23 23.63 19.23 23.63l-20.54 11.6z"/><path d="m216.94 212.48c-.35-.69-.82-1.26-1.36-1.74-.36-.32-.76-.59-1.2-.82-.43-.23-.9-.42-1.39-.58-1.22-.39-2.61-.55-4.06-.55-.24 0-.49 0-.74.01-3.85.14-8.06 1.27-10.89 2.27l2.81 17.89c3.1-.61 6-1.5 8.52-2.64 1.01-.45 1.96-.95 2.83-1.48s1.68-1.09 2.39-1.69c2.51-2.08 3.97-4.56 3.87-7.28-.01-.34-.04-.67-.08-.98-.12-.93-.37-1.74-.73-2.43zm-14 12.27-1.78-11.29c2.01-.56 4.64-1.14 7.16-1.23.21 0 .41-.01.61-.01 5.24 0 5.33 2.36 5.38 3.77.12 3.32-4.5 6.77-11.37 8.75z"/><path d="m152.64 186.44c.33.02.66.04.98.07-.32-.03-.65-.05-.98-.07z" fill="none"/><path d="m186.73 223.69c-.65-18.2-12.33-34.86-32.59-37.12 20.26 2.26 31.94 18.92 32.59 37.12z" fill="none"/><path d="m150.64 186.33c.3 0 .6 0 .89.02-.29-.01-.6-.01-.89-.02z" fill="none"/><path d="m149.36 213.44h-.45c-7.63.28-12.17 5.75-11.87 14.29.21 5.78 3.55 12.52 12.29 12.52.21 0 .42 0 .64-.01 3.24-.12 5.83-1.44 7.69-3.95 1.95-2.62 2.93-6.45 2.78-10.78-.21-6-4.08-12.08-11.07-12.08z" fill="none"/><path d="m183.24 223.82c-.58-16.38-11.42-34.01-33.85-34.01-.5 0-1.01 0-1.52.03-10.25.37-18.8 4.29-24.71 11.36-5.59 6.67-8.47 15.82-8.12 25.74.32 8.84 3.92 16.97 10.14 22.89 6.11 5.8 14.15 8.99 22.66 8.99.4 0 .8 0 1.2-.02 9.46-.34 18.16-3.89 24.48-10.01 6.71-6.48 10.06-15.12 9.71-24.97zm-20.02 16.61c-3.09 4.16-7.71 6.56-13.01 6.75-.3.01-.59.02-.88.02-12.73 0-18.89-9.96-19.22-19.21-.44-12.23 7.19-21.06 18.55-21.46.24 0 .47-.01.7-.01 11.26 0 17.67 9.67 18 18.76.21 5.98-1.22 11.22-4.14 15.16z" fill="#fff"/><path d="m186.73 223.69c-.65-18.2-12.33-34.86-32.59-37.12-.18-.02-.35-.05-.52-.07-.32-.03-.65-.05-.98-.07-.37-.03-.73-.06-1.11-.08-.29-.01-.6-.01-.89-.02-.42-.01-.83-.03-1.25-.03-.54 0-1.09.01-1.64.03-23.69.84-36.97 19.21-36.21 40.73.73 20.46 17.12 35.26 36.3 35.26.44 0 .89 0 1.33-.02 20.53-.73 38.38-15.7 37.57-38.6zm-61.55 26.13c-6.23-5.91-9.83-14.04-10.14-22.89-.35-9.93 2.53-19.07 8.12-25.74 5.92-7.07 14.46-11 24.71-11.36.51-.02 1.02-.03 1.52-.03 22.42 0 33.26 17.63 33.85 34.01.35 9.86-3.01 18.49-9.71 24.97-6.33 6.11-15.02 9.67-24.48 10.01-.4.01-.8.02-1.2.02-8.51 0-16.55-3.19-22.66-8.99z" fill="#38a5f5"/><path d="m150.21 247.18c5.3-.19 9.92-2.58 13.01-6.75 2.92-3.94 4.36-9.18 4.14-15.16-.32-9.1-6.74-18.76-18-18.76-.23 0-.46 0-.7.01-11.36.4-18.99 9.23-18.55 21.46.33 9.25 6.48 19.21 19.22 19.21.29 0 .59 0 .88-.02zm13.65-21.78c.37 10.46-4.99 17.97-13.78 18.28-.26 0-.51.01-.76.01-10.35 0-15.43-7.74-15.72-15.83-.37-10.27 5.6-17.5 15.18-17.84.19 0 .39-.01.58-.01 9.12 0 14.23 7.84 14.5 15.39z" fill="#38a5f5"/><path d="m190.17 223.57c-.72-20.23-14.96-40.7-40.78-40.7-.58 0-1.17.01-1.77.03-24.17.86-40.42 19.07-39.52 44.28.77 21.63 18.22 38.57 39.73 38.57.48 0 .97 0 1.45-.03 24.13-.86 41.7-18.98 40.88-42.16zm-42.33 38.75c-19.18 0-35.57-14.8-36.3-35.26-.77-21.52 12.51-39.88 36.21-40.73.55-.02 1.1-.03 1.64-.03.42 0 .84.02 1.25.03.3 0 .6 0 .89.02.37.02.74.05 1.11.08.33.02.66.04.98.07.18.02.35.05.52.07 20.26 2.26 31.94 18.92 32.59 37.12.82 22.9-17.03 37.87-37.57 38.6-.44.02-.89.02-1.33.02z"/><path d="m149.36 210.01c-.19 0-.38 0-.58.01-9.58.34-15.54 7.57-15.18 17.84.29 8.1 5.37 15.83 15.72 15.83.25 0 .5 0 .76-.01 8.78-.31 14.15-7.82 13.78-18.28-.27-7.54-5.39-15.39-14.5-15.39zm.6 30.24c-.21 0-.43.01-.64.01-8.74 0-12.08-6.74-12.29-12.52-.3-8.54 4.24-14.01 11.87-14.28h.45c6.98 0 10.85 6.07 11.07 12.07.15 4.33-.83 8.15-2.78 10.78-1.86 2.5-4.45 3.83-7.69 3.95z"/><path d="m311.4 72.52-38.1 58.03 38.1-58.03-27.02-10.19z" fill="none"/><path d="m303.79 75-17.16-6.47-21.96 39.07-4.36 7.76-4.36-7.76-22.18-39.49-29.92 10.15 36.95 48.21 1.02 1.32.01 1.67.54 48.06 26.34-2.25-.4-44.68-.02-1.51.84-1.27z" fill="#ff1713"/><path d="m311.4 72.52-27.02-10.19-24.07 42.82-24.21-43.12-40.46 13.73 41.19 53.74.59 53.45 36.32-3.1-.44-49.31 38.09-58.03zm-77.63-4.41 22.18 39.5 4.36 7.76 4.36-7.76 21.96-39.08 17.16 6.47-34.67 52.81-.83 1.27v1.52s.41 44.68.41 44.68l-26.34 2.25-.53-48.06-.02-1.66-1.01-1.32-36.95-48.21 29.92-10.16z" fill="#38a5f5"/><path d="m316.62 70.82-4.01-1.51-27.02-10.19-2.76-1.04-1.45 2.57-21.07 37.49-21.22-37.79-1.4-2.49-2.7.92-40.46 13.73-4.54 1.54 2.91 3.8 40.5 52.83.58 52.3.04 3.7 3.69-.31 36.32-3.1 3.17-.27-.03-3.18-.43-48.27 37.52-57.16 2.35-3.59zm-43.32 59.73.44 49.31-36.32 3.1-.59-53.45-41.19-53.74 40.46-13.73 24.21 43.12 24.07-42.82 27.02 10.19-38.09 58.03z"/><path d="m169.51 152.79c-.81-.26-1.59-.55-2.34-.89.75.33 1.53.63 2.34.89z" fill="none"/><path d="m154.52 135.23c-.15-.75-.27-1.51-.36-2.28.09.77.21 1.53.36 2.28z" fill="none"/><path d="m164.03 150.18c-.65-.43-1.27-.9-1.85-1.39.58.49 1.2.96 1.85 1.39z" fill="none"/><path d="m155.4 138.54c-.24-.72-.45-1.45-.63-2.19.18.74.39 1.47.63 2.19z" fill="none"/><path d="m227.79 99.38c1.14 2.45 2.11 4.99 2.92 7.6-.81-2.61-1.78-5.15-2.92-7.6z" fill="none"/><path d="m154.17 132.95c-.09-.77-.15-1.54-.18-2.31.03.77.09 1.54.18 2.31z" fill="none"/><path d="m222.35 90.1c1.05 1.45 2.03 2.95 2.94 4.5-.91-1.55-1.88-3.05-2.94-4.5z" fill="none"/><path d="m213.15 80.29c1.4 1.15 2.74 2.37 4 3.65-1.26-1.28-2.6-2.5-4-3.65z" fill="none"/><path d="m233.55 126.09c0-6.56-.96-13.01-2.84-19.1 1.88 6.09 2.84 12.55 2.84 19.1z" fill="none"/><path d="m215.98 166.76c3.35-3.01 6.32-6.44 8.82-10.25-2.5 3.81-5.47 7.24-8.82 10.25z" fill="none"/><path d="m213.93 168.52c-3.49 2.84-7.34 5.26-11.45 7.22 4.11-1.96 7.96-4.38 11.45-7.22z" fill="none"/><path d="m177.59 107.08c-12.26 0-20.19 8.79-20.19 22.4 0 9.72 5.63 21.04 20.33 21.04 10.86 0 18.13-9.05 18.13-23.1 0-12.31-9.19-20.34-18.27-20.34z" fill="none"/><path d="m215.25 89.23c-9.33-10.48-22.45-16.02-37.96-16.02s-28.44 5.44-37.7 15.73c-8.74 9.71-13.55 23.27-13.55 38.18 0 13.61 5.19 26.22 14.6 35.49 9.26 9.12 21.59 14.14 34.73 14.14 14.21 0 27.44-4.87 37.26-13.7 10.41-9.37 15.91-22.15 15.91-36.96s-4.72-27.22-13.3-36.86zm-17.9 60.46c-4.79 5.99-11.76 9.3-19.61 9.3-19.77 0-28.77-15.3-28.77-29.51 0-8.83 2.67-16.45 7.74-22.04 5.22-5.76 12.44-8.8 20.89-8.8 12.95 0 26.7 10.08 26.7 28.77 0 8.89-2.4 16.59-6.95 22.28z" fill="#ff1713"/><path d="m230.71 106.98c-.81-2.61-1.78-5.15-2.92-7.6-.76-1.63-1.59-3.23-2.5-4.78s-1.88-3.05-2.94-4.5c-1.58-2.18-3.31-4.24-5.21-6.16-1.26-1.28-2.6-2.5-4-3.65-9.12-7.48-21.16-12.09-35.85-12.09-35.44 0-56.25 26.73-56.25 58.91s24.8 54.63 54.34 54.63c9.6 0 18.88-2.09 27.1-6.01 4.11-1.96 7.96-4.38 11.45-7.22.7-.57 1.38-1.15 2.05-1.76 3.35-3.01 6.32-6.44 8.82-10.25s4.54-8.01 6.01-12.57c1.77-5.46 2.74-11.43 2.74-17.86s-.96-13.01-2.84-19.1zm-90.07 55.63c-9.42-9.28-14.6-21.88-14.6-35.49 0-14.91 4.81-28.47 13.55-38.18 9.26-10.29 22.3-15.73 37.7-15.73s28.63 5.54 37.96 16.02c8.57 9.64 13.3 22.73 13.3 36.86s-5.5 27.59-15.91 36.96c-9.82 8.84-23.05 13.7-37.26 13.7-13.14 0-25.48-5.02-34.73-14.14z" fill="#38a5f5"/><path d="m177.59 98.64c-8.44 0-15.67 3.04-20.89 8.8-5.06 5.58-7.74 13.2-7.74 22.04 0 14.21 9 29.51 28.77 29.51 7.85 0 14.82-3.3 19.61-9.3 4.54-5.68 6.95-13.39 6.95-22.28 0-18.69-13.76-28.77-26.7-28.77zm21.61 31.65c-.06.94-.16 1.86-.29 2.76-.19 1.35-.45 2.65-.78 3.89-.33 1.25-.72 2.44-1.18 3.57s-.98 2.21-1.57 3.22c-.58 1.01-1.23 1.96-1.93 2.84-1.87 2.34-4.16 4.2-6.79 5.47-.66.32-1.34.6-2.04.84-2.11.73-4.4 1.11-6.87 1.11-3.05 0-5.78-.43-8.22-1.2-.81-.26-1.59-.55-2.34-.89-1.12-.5-2.17-1.08-3.14-1.73-.65-.43-1.27-.9-1.85-1.39-3.22-2.71-5.46-6.29-6.78-10.24-.24-.72-.45-1.45-.63-2.19-.09-.37-.17-.74-.25-1.12-.15-.75-.27-1.51-.36-2.28s-.15-1.54-.18-2.31c-.01-.39-.02-.77-.02-1.16 0-15.35 9.3-25.84 23.62-25.84s21.7 12.25 21.7 23.77c0 .98-.03 1.94-.1 2.88z" fill="#38a5f5"/><path d="m177.59 103.64c-14.32 0-23.62 10.48-23.62 25.84 0 .39 0 .77.02 1.16.03.77.09 1.54.18 2.31s.21 1.53.36 2.28c.07.38.16.75.25 1.12.18.74.39 1.47.63 2.19 1.32 3.96 3.56 7.53 6.78 10.24.58.49 1.2.96 1.85 1.39.97.65 2.02 1.23 3.14 1.73.75.33 1.53.63 2.34.89 2.44.77 5.18 1.2 8.22 1.2 2.46 0 4.76-.38 6.87-1.11.7-.24 1.38-.52 2.04-.84 2.64-1.27 4.92-3.12 6.79-5.47.7-.88 1.35-1.83 1.93-2.84s1.11-2.09 1.57-3.22.85-2.33 1.18-3.57c.33-1.25.59-2.54.78-3.89.13-.9.22-1.82.29-2.76.06-.94.1-1.9.1-2.88 0-11.52-7.53-23.77-21.7-23.77zm.14 46.88c-14.7 0-20.33-11.32-20.33-21.04 0-13.61 7.92-22.4 20.19-22.4 9.08 0 18.27 8.03 18.27 20.34 0 14.06-7.27 23.1-18.13 23.1z"/><path d="m177.29 64.77c-35.14 0-59.69 25.64-59.69 62.35 0 32.56 25.38 57.98 57.77 58.07 35.64.09 61.61-25.41 61.61-59.1 0-30.47-20.5-61.32-59.69-61.32zm53.52 79.17c-1.48 4.55-3.51 8.75-6.01 12.57s-5.47 7.24-8.82 10.25c-.67.6-1.35 1.19-2.05 1.76-3.49 2.84-7.34 5.26-11.45 7.22-8.22 3.92-17.5 6.01-27.1 6.01-29.53 0-54.34-23.33-54.34-54.63s20.82-58.91 56.25-58.91c14.7 0 26.74 4.61 35.85 12.09 1.4 1.15 2.74 2.37 4 3.65 1.89 1.92 3.63 3.98 5.21 6.16 1.05 1.45 2.03 2.95 2.94 4.5s1.74 3.14 2.5 4.78c1.14 2.45 2.11 4.99 2.92 7.6 1.88 6.09 2.84 12.55 2.84 19.1 0 2.41-.14 4.75-.4 7.03-.44 3.8-1.23 7.41-2.34 10.82z"/><path d="m103.71 183.95-11.79 40.39-3.82 13.1-2.95-13.33-6.63-29.91-8.19.86-7.93 27.82-4.57 16.01-2.27-16.5-5.23-38.1-19.67 4.21 15.77 72.77 14.58-3.61 9.22-32.75 3.97-14.11 2.83 14.38 6.26 31.8 12.87 2.4 23.87-70.68z" fill="#fff"/><path d="m101.33 179.61-12.77 43.74-7.3-32.96-13.65 1.42-8.58 30.1-5.75-41.84-26.79 5.73 17.27 79.73 20.06-4.97 9.77-34.71 6.72 34.12 18.18 3.4 26.01-77.01-23.18-6.75zm-18.04 77.37-6.26-31.79-2.83-14.38-3.97 14.11-9.22 32.75-14.59 3.61-15.76-72.78 19.67-4.21 5.23 38.1 2.27 16.5 4.57-16.02 7.93-27.82 8.19-.85 6.62 29.91 2.95 13.33 3.82-13.11 11.79-40.39 16.32 4.75-23.87 70.68-12.86-2.4z" fill="#38a5f5"/><path d="m125.47 183.07-23.18-6.75-3.3-.96-.96 3.3-9.01 30.88-4.4-19.88-.66-2.99-3.05.32-13.65 1.42-2.31.24-.64 2.23-4.1 14.38-3.52-25.64-.5-3.67-3.62.77-26.79 5.73-3.37.72.73 3.37 17.27 79.73.75 3.46 3.43-.85 20.06-4.97 1.94-.48.54-1.92 5.87-20.86 3.94 20 .45 2.29 2.29.43 18.18 3.4 2.93.55.95-2.83 26.01-77.01 1.15-3.4-3.44-1zm-45.15 76.91-6.72-34.12-9.77 34.71-20.06 4.97-17.27-79.73 26.79-5.73 5.75 41.84 8.58-30.1 13.65-1.42 7.3 32.96 12.77-43.74 23.18 6.75-26.01 77.01-18.18-3.4z"/><path d="m83.52 97.79-2.21 74.76z" fill="none"/><path d="m88.52 97.93-2.04 68.96 21.68-2.59-2.76-68.23-.2-4.86 4.86-.33 28.21-1.91.53-24.2-87.65-4.77-.11 34.44 32.23-1.65 5.41-.28z" fill="#ff1713"/><path d="m143.91 60.04-97.74-5.31-.15 44.98 37.5-1.92s-2.21 74.76-2.21 74.76l32.04-3.84-2.95-72.84 32.78-2.21.74-33.61zm-5.64 28.93-28.22 1.91-4.86.33.2 4.86 2.77 68.23-21.69 2.6 2.04-68.96.16-5.42-5.41.28-32.23 1.65.11-34.44 87.65 4.77-.53 24.2z" fill="#38a5f5"/><path d="m144.1 56.61-97.74-5.31-3.61-.2v3.62s-.16 44.98-.16 44.98v3.63s3.61-.19 3.61-.19l33.78-1.73-2.1 71.04-.12 3.99 3.96-.47 32.04-3.84 3.15-.38-.13-3.17-2.82-69.5 29.44-1.99 3.13-.21.07-3.14.74-33.61.07-3.33-3.32-.18zm-.93 37.04-32.78 2.21 2.95 72.84-32.04 3.84 2.21-74.76-37.5 1.92.15-44.98 97.74 5.31-.74 33.61z"/><path d="m46.02 99.71 37.5-1.92z"/><path d="m46.02 99.71.15-44.98 97.74 5.31-97.74-5.31z"/><path d="m215.8 36.21-17.22 32.06 41.71.11-.88-12.53-15.17 1.86-7.27.89 3.18-6.6 16.01-33.19-39.76 5.26.59 8.34 14.73-2.06 7.81-1.09z" fill="#fff"/><path d="m234 50.75-7.33.9z" fill="#38a5f5"/><path d="m246.43 74.12-3.69-.01-47.99-.14-5.72-.01z" fill="#38a5f5"/><path d="m245.91 11.75-4.45.59z" fill="#38a5f5"/><path d="m194.89 35.01 20.5-2.86s-20.63 38.39-20.63 38.39l47.98.13-1.23-17.38-20.67 2.54s18.95-39.3 18.95-39.3l.26-.53-19.03 2.52-27.05 3.58.91 12.92zm25.26 16.99-3.18 6.6 7.27-.89 15.16-1.86.89 12.53-41.72-.12 17.22-32.06 3.73-6.95-7.81 1.09-14.73 2.06-.59-8.34 39.76-5.26-16.01 33.19z" fill="#38a5f5"/><path d="m246.17 70.43-1.23-17.38-.26-3.61-3.59.44-7.1.87-7.33.9s16.48-34.17 16.48-34.17l2.76-5.73s-4.45.59-4.45.59l-1.85.25-46.08 6.1-3.2.42.23 3.22.91 12.92.26 3.67s3.64-.51 3.64-.51l13.8-1.93s-17.42 32.43-17.42 32.43l-2.71 5.05 5.73.02 47.98.13h3.7s0 .01 0 .01l-.26-3.69zm-30.78-38.28s-20.5 2.86-20.5 2.86-.91-12.92-.91-12.92l27.05-3.58 19.03-2.52-.26.53-18.95 39.3s20.67-2.54 20.67-2.54l1.23 17.38-47.98-.13 20.63-38.39z"/><path d="m184.47 42.5-2.73-2.26 1.92-2.98 13.76-21.31-10.89.38-8.99 15.11-7.55 12.69.11-14.77.1-12.68-12.9.8 5.7 48.19 7.62 1 .24-13.02.16-8.55 6.46 5.61 15.48 13.42 8.46-7.55z" fill="#fff"/><path d="m204.92 56.53s-20.16-16.75-20.16-16.75 16.95-26.25 16.95-26.25-16.5.56-16.5.56l-12.87 21.63s.16-21.47.16-21.47-17.75 1.1-17.75 1.1l6.19 52.35s11.91 1.57 11.91 1.57l.36-19.25 19.76 17.15 11.94-10.64zm-27.44-5.82-6.46-5.61-.16 8.55-.24 13.02-7.62-1-5.7-48.19 12.9-.8-.1 12.68-.11 14.77 7.55-12.69 8.99-15.11 10.89-.37-13.75 21.3-1.92 2.98 2.73 2.27 16.95 14.08-8.46 7.54-15.47-13.42z" fill="#38a5f5"/><path d="m157.85 70.76 11.19 1.47-8.54-1.12z" fill="#38a5f5"/><path d="m210.18 56.43-3.07-2.55-17.82-14.8 15.29-23.69 3.56-5.52s-6.57.22-6.57.22l-16.5.56-1.88.06-.96 1.61-6.38 10.73s.07-8.79.07-8.79v-1.5s.03-2.18.03-2.18l-3.68.23-17.75 1.1-3.62.23.43 3.61 6.19 52.35.31 2.65s2.65.35 2.65.35l8.54 1.13 3.37.44 3.81.5s.07-3.84.07-3.84l.18-9.81.04-2.09s14.22 12.33 14.22 12.33l2.28 1.98 2.25-2.01 11.21-9.99.73-.65 2.98-2.66zm-37.68-42.18s-.16 21.47-.16 21.47 12.87-21.63 12.87-21.63l16.5-.56s-16.95 26.25-16.95 26.25 20.16 16.75 20.16 16.75-11.94 10.64-11.94 10.64l-19.76-17.15-.36 19.25-11.91-1.57s-6.19-52.35-6.19-52.35l17.75-1.1z"/><path d="m136.84 35.65c-1.65-.31-3.69-.7-5.36-1.18-3.82-1.1-5.63-3.03-5.38-5.72.17-1.74 1.36-5.79 8.82-5.79.77 0 1.57.04 2.38.12 3.95.38 8.03 1.53 10.94 2.66l1.1-8.57c-3.95-.99-7.74-1.66-11.3-2-1.88-.18-3.7-.27-5.4-.27-6.41 0-11.35 1.19-14.7 3.55-3.08 2.17-4.77 5.32-5.18 9.63-.76 7.98 6.2 10.62 16.12 13.48 6.56 1.89 13.31 3.84 12.76 9.66-.46 4.8-4.66 7.78-10.97 7.78-.65 0-1.32-.03-2-.1-4.97-.47-10.14-2.59-14.74-6.02l-6.36 7.03c4.4 4.99 12.7 8.66 21.77 9.52 1.32.13 2.65.19 3.95.19 4.96 0 21.24-1.15 22.66-15.99 1.24-13.03-7.92-15.85-19.11-17.98z" fill="#fff"/><path d="m106.94 62.54c.24.24.48.48.74.71.09.08.19.16.29.24.32.28.64.55.98.82.04.03.07.05.11.08 5.19 4.01 12.56 6.6 20.07 7.31 1.39.13 2.78.2 4.17.2.74 0 1.47-.02 2.2-.06 9.03-.48 17.29-3.98 20.91-11.36 0-.01.01-.03.02-.04.13-.27.26-.56.38-.84.02-.06.05-.12.08-.17.1-.24.19-.5.28-.75.04-.1.08-.2.11-.3.07-.22.14-.44.21-.67.04-.14.09-.27.12-.41.05-.2.1-.4.15-.6.04-.17.09-.34.12-.52.04-.18.07-.36.1-.54.04-.21.08-.41.11-.62.02-.14.03-.28.05-.43.03-.25.07-.5.09-.76.07-.69.09-1.34.11-1.97 0-.18 0-.36 0-.54 0-.51-.02-1.01-.05-1.5-.02-.33-.06-.66-.1-.98-.03-.22-.05-.43-.09-.64-1.52-9.89-10.33-12.67-17.97-14.25-.1-.02-.21-.04-.31-.07-.21-.04-.42-.09-.63-.13-.32-.06-.64-.13-.96-.19-.14-.03-.28-.05-.42-.08-.36-.07-.71-.14-1.06-.2-.85-.16-1.67-.32-2.44-.49-.05-.01-.11-.02-.16-.04-.32-.07-.64-.14-.95-.22-.05-.01-.11-.03-.16-.04-.33-.08-.66-.17-.96-.26-.05-.02-.11-.03-.16-.05-.24-.07-.47-.15-.69-.23-.08-.03-.16-.06-.24-.09-.23-.09-.46-.18-.66-.28-.03-.02-.07-.03-.1-.05-.21-.1-.4-.22-.58-.33-.06-.04-.12-.08-.18-.12-.13-.09-.25-.19-.36-.3-.04-.04-.09-.08-.13-.12-.13-.14-.24-.29-.33-.45-.02-.04-.04-.08-.06-.13-.06-.13-.11-.26-.15-.41-.01-.05-.03-.11-.04-.16-.03-.19-.04-.38-.03-.58 0 0 0 0 0-.01s0-.02 0-.03c.01-.13.03-.25.06-.38.01-.05.02-.11.04-.16.02-.07.04-.15.07-.22.09-.29.22-.55.38-.79 0-.01.02-.03.02-.04.06-.1.14-.19.21-.28.01-.01.02-.03.03-.04.08-.09.16-.18.25-.26.01-.01.03-.03.04-.04.09-.08.18-.16.28-.23.02-.02.05-.04.07-.05.1-.07.2-.14.3-.2.04-.02.08-.05.12-.07.1-.05.2-.11.31-.16.06-.03.12-.05.18-.08l.3-.12c.07-.03.15-.05.22-.08.11-.03.21-.07.32-.1.08-.02.16-.05.25-.07.14-.04.29-.07.44-.1.06-.01.11-.03.18-.04.21-.04.44-.07.66-.1.06 0 .13-.01.2-.02.19-.02.39-.04.59-.05h.18c.28-.01.55-.02.84-.02.69 0 1.41.04 2.15.11.17.02.35.04.52.06.14.02.28.03.42.05 2.81.36 5.73 1.11 8.12 1.93.05.02.1.03.15.05.14.05.28.1.42.15.15.06.31.11.45.17.03.01.05.02.08.03 1.17.44 2.16.89 2.88 1.29l1.74-13.6c-1.06-.29-2.21-.58-3.4-.86-.11-.03-.22-.05-.33-.08-1.02-.23-2.03-.45-3.02-.64-.18-.03-.36-.07-.53-.1-.97-.18-1.93-.34-2.88-.48-.16-.02-.32-.04-.48-.07-.98-.14-1.95-.26-2.91-.35-.01 0-.03 0-.04 0-.07 0-.14 0-.21-.02-.93-.08-1.83-.15-2.71-.19-.86-.04-1.71-.06-2.56-.07-.04 0-.09 0-.13 0 0 0 0 0-.01 0-.62 0-1.24.01-1.85.04-.08 0-.15 0-.23 0-9.28.4-17.65 3.61-19.68 12.86-.02.08-.04.15-.06.23-.14.67-.24 1.37-.31 2.11-.05.5-.06.98-.06 1.45v.28c.01.42.05.82.09 1.21.02.14.04.29.06.43.05.3.11.58.18.87.06.24.13.47.2.7.04.14.09.27.14.41 1.68 4.52 6.26 6.98 11.27 8.74.15.05.31.11.46.16.19.06.37.13.56.19.37.12.74.24 1.11.36.08.03.16.05.24.08 3.48 1.08 6.96 1.94 9.67 3.01.09.03.17.07.26.1.22.09.43.18.64.28.11.05.21.1.31.15.19.09.38.18.56.28.11.06.21.12.32.18.16.09.33.18.48.28.13.08.24.16.36.25.2.14.38.28.55.43.12.11.25.21.36.33.08.08.15.17.22.25.1.11.19.23.27.35.06.09.11.18.17.26.07.13.14.26.2.39.04.09.08.18.11.27.05.15.09.31.12.48.01.08.04.16.04.24.03.25.03.51 0 .78 0 .04-.01.08-.02.12-.02.2-.05.39-.09.58-.03.14-.07.27-.11.4-.02.08-.04.16-.07.24-.05.16-.12.3-.18.45-.02.05-.04.09-.06.14-.08.16-.16.31-.25.45-.02.03-.04.07-.06.1-.09.14-.2.28-.3.42-.03.04-.06.07-.09.11-.1.12-.21.24-.32.35-.05.05-.1.1-.16.15-.1.09-.19.18-.3.26-.09.08-.19.15-.29.22-.07.05-.13.1-.2.14-.15.1-.31.2-.48.29-.02 0-.03.02-.05.03-1.13.63-2.53 1.03-4.12 1.19-.09 0-.17.01-.26.02-.16.01-.31.03-.47.03-.27.01-.54.02-.81.02-.57 0-1.16-.03-1.77-.09-.11-.01-.23-.03-.34-.05-.49-.05-.99-.12-1.5-.21-.44-.08-.87-.19-1.31-.29-.18-.04-.37-.08-.55-.13-.52-.14-1.03-.3-1.55-.48-.12-.04-.24-.07-.36-.11-.53-.19-1.06-.4-1.59-.62-.12-.05-.23-.09-.35-.14-.51-.23-1.02-.48-1.53-.74-.14-.07-.28-.14-.43-.21-.49-.26-.98-.55-1.46-.84-.16-.1-.32-.18-.48-.28-.51-.32-1.02-.67-1.52-1.02-.13-.09-.26-.17-.39-.26-.63-.46-1.25-.95-1.87-1.47l-9.08 10.05c.16.23.35.46.53.69.13.16.24.33.37.49.15.18.32.35.47.53.18.21.36.42.56.62.13.14.28.27.41.4zm34.71-11.31c.55-5.82-6.2-7.77-12.76-9.66-9.92-2.86-16.88-5.5-16.12-13.48.41-4.32 2.1-7.47 5.18-9.63 3.34-2.36 8.29-3.55 14.7-3.55 1.7 0 3.52.09 5.4.27 3.56.34 7.35 1.01 11.3 2l-1.1 8.57c-2.91-1.12-6.99-2.28-10.94-2.66-.81-.08-1.61-.12-2.38-.12-7.46 0-8.65 4.05-8.82 5.79-.26 2.69 1.55 4.62 5.38 5.72 1.67.48 3.71.87 5.36 1.18 11.19 2.13 20.35 4.96 19.11 17.98-1.41 14.84-17.7 15.99-22.66 15.99-1.3 0-2.62-.06-3.95-.19-9.07-.86-17.36-4.53-21.77-9.52l6.36-7.03c4.6 3.43 9.77 5.55 14.74 6.02.68.07 1.35.1 2 .1 6.31 0 10.52-2.98 10.97-7.78z" fill="#38a5f5"/><path d="m137.91 30.03c-.36-.07-.74-.14-1.12-.22-1.43-.28-2.97-.6-4.05-.93h.01c.22-.05.48-.09.78-.13.39-.05.85-.08 1.4-.08h.12c.53 0 1.08.03 1.65.08h.06c4.55.43 9.71 2.2 11.69 3.3l4.44 2.48.65-5.05 1.75-13.61.38-2.96s-2.88-.79-2.88-.79c-1.92-.52-3.8-.96-5.65-1.34-2.94-.61-5.8-1.07-8.53-1.33-.96-.09-1.9-.16-2.83-.21-.1 0-.21-.01-.31-.02-.85-.04-1.69-.06-2.51-.06-.09 0-.2 0-.29 0-.1 0-.19 0-.29 0-.77 0-1.52.02-2.25.06-.24.01-.47.03-.7.04-.62.04-1.23.09-1.83.16-.29.03-.58.07-.87.11-.51.07-1.01.14-1.5.23-.27.05-.53.09-.79.14-.56.11-1.1.23-1.63.36-.26.06-.52.13-.77.2-.53.15-1.04.3-1.55.47-.24.08-.47.16-.7.25-.5.18-.99.38-1.47.59-.19.08-.37.18-.56.26-.4.19-.79.39-1.17.6-.19.11-.38.21-.57.32-.41.24-.8.49-1.18.76-.14.1-.29.2-.43.3-.42.3-.81.63-1.19.96-.12.11-.25.22-.37.33-.38.35-.74.71-1.09 1.09-.09.1-.18.21-.28.32-.35.4-.69.82-1 1.25-.05.07-.09.14-.14.21-.29.43-.57.87-.82 1.32-.04.08-.09.15-.14.23-.26.49-.5.99-.72 1.51-.05.11-.1.22-.14.33-.21.52-.4 1.05-.56 1.6-.04.12-.07.24-.11.36-.16.56-.3 1.13-.41 1.73-.02.1-.04.21-.05.32-.11.61-.2 1.23-.26 1.87 0 .03 0 .05-.01.08-.2 2.08-.05 3.93.38 5.58.01.05.03.1.04.15.07.28.15.55.24.82.7 2.07 1.87 3.79 3.32 5.24.09.09.17.18.26.27.04.04.08.07.11.1 3.61 3.39 8.82 5.27 13.38 6.64.86.26 1.69.5 2.49.73 1.83.53 4.66 1.35 6.59 2.17.1.04.19.08.28.12.06.03.12.05.18.08.81.38 1.38.75 1.56 1.09.01.02.03.04.04.06 0 .02 0 .04-.01.05-.29 2.52-4.44 2.64-5.27 2.64-.23 0-.47-.02-.7-.03-.25-.01-.49-.01-.74-.04-.24-.02-.49-.07-.73-.1-4.21-.58-8.76-2.71-12.61-5.97l-2.54-2.15-2.23 2.46-9.08 10.05-1.84 2.03s.75 1.06.75 1.06l.83 1.18c1.24 1.77 2.81 3.41 4.65 4.9 5.57 4.51 13.6 7.61 22.37 8.44 1.5.14 3.01.21 4.49.21.93 0 1.84-.03 2.73-.09.2-.01.39-.03.59-.04.59-.04 1.17-.11 1.74-.17 5.14-.59 9.59-2.07 13.19-4.35.49-.31.97-.62 1.42-.96.07-.05.15-.11.22-.16 4.22-3.19 7.04-7.59 8.1-12.97 0-.05.02-.09.03-.14.14-.74.25-1.5.33-2.28 0 0 0-.01 0-.02 1.83-19.27-14.8-22.44-23.74-24.14zm20.42 21.85c-.01.64-.04 1.29-.11 1.97-.02.26-.06.51-.09.76-.02.14-.03.29-.05.43-.03.21-.07.41-.11.62-.03.18-.06.36-.1.54s-.08.34-.12.52c-.05.2-.09.4-.15.6-.04.14-.08.27-.12.41-.07.22-.13.45-.21.67-.03.1-.07.2-.11.3-.09.25-.18.5-.28.75-.02.06-.05.12-.08.17-.12.29-.25.57-.38.84 0 .01-.01.03-.02.04-3.62 7.38-11.88 10.88-20.91 11.36-.73.04-1.46.06-2.2.06-1.38 0-2.78-.07-4.17-.2-7.51-.71-14.88-3.3-20.07-7.31-.04-.03-.07-.05-.11-.08-.34-.27-.66-.54-.98-.82-.09-.08-.2-.16-.29-.24-.26-.23-.5-.47-.74-.71-.14-.13-.28-.26-.41-.4-.2-.2-.37-.41-.56-.62-.16-.18-.32-.35-.47-.53-.13-.16-.25-.33-.37-.49-.18-.23-.36-.45-.53-.69l9.08-10.05c.62.52 1.24 1.01 1.87 1.47.13.09.26.17.39.26.5.36 1.01.71 1.52 1.02.16.1.32.19.48.28.49.29.97.58 1.46.84.14.08.28.14.43.21.51.26 1.02.51 1.53.74.12.05.24.09.35.14.53.22 1.06.44 1.59.62.12.04.24.07.36.11.52.17 1.04.34 1.55.48.19.05.37.08.55.13.44.11.88.21 1.31.29.51.09 1 .16 1.5.21.11.01.23.04.34.05.61.06 1.2.09 1.77.09.28 0 .55 0 .81-.02.16 0 .31-.02.47-.03.09 0 .17-.01.26-.02 1.59-.16 2.99-.56 4.12-1.19.02 0 .03-.02.05-.03.17-.09.33-.19.48-.29.07-.05.14-.09.2-.14.1-.07.2-.14.29-.22.1-.08.2-.17.3-.26.05-.05.1-.1.16-.15.11-.11.22-.23.32-.35.03-.03.06-.07.09-.11.11-.13.21-.27.3-.42.02-.03.04-.07.06-.1.09-.15.18-.3.25-.45.02-.04.04-.09.06-.14.07-.15.13-.3.18-.45.03-.08.05-.16.07-.24.04-.13.08-.26.11-.4.04-.19.07-.38.09-.58 0-.04.01-.08.02-.12.03-.27.02-.53 0-.78 0-.08-.03-.16-.04-.24-.03-.16-.06-.32-.12-.48-.03-.09-.07-.18-.11-.27-.06-.13-.12-.26-.2-.39-.05-.09-.11-.18-.17-.26-.08-.12-.18-.23-.27-.35-.07-.08-.14-.17-.22-.25-.11-.11-.24-.22-.36-.33-.17-.15-.35-.29-.55-.43-.12-.08-.23-.17-.36-.25-.15-.1-.32-.19-.48-.28-.11-.06-.21-.12-.32-.18-.18-.09-.37-.19-.56-.28-.1-.05-.21-.1-.31-.15-.21-.09-.42-.19-.64-.28-.08-.03-.17-.07-.26-.1-.41-.16-.84-.32-1.27-.47-.13-.05-.27-.09-.41-.14-.33-.11-.66-.22-1-.33-.14-.05-.29-.09-.43-.14-.43-.13-.86-.26-1.3-.39-.04-.01-.07-.02-.11-.03-.71-.21-1.45-.42-2.19-.64-.15-.04-.31-.09-.46-.13-.32-.09-.65-.19-.98-.29-.5-.15-1.01-.3-1.51-.46-.08-.03-.16-.05-.24-.08-.37-.12-.74-.24-1.11-.36-.19-.06-.37-.13-.56-.19-.15-.05-.31-.11-.46-.16-5.01-1.76-9.59-4.22-11.27-8.74-.05-.13-.1-.27-.14-.41-.07-.23-.14-.46-.2-.7-.07-.28-.13-.57-.18-.87-.02-.14-.05-.28-.06-.43-.05-.39-.08-.79-.09-1.21 0-.09 0-.19 0-.28 0-.47.01-.95.06-1.45.07-.74.18-1.44.31-2.11.02-.08.04-.15.06-.23.12-.56.27-1.1.44-1.62.02-.07.05-.14.08-.22.16-.45.32-.89.51-1.31.02-.04.04-.09.06-.13 3.11-6.75 10.5-9.23 18.59-9.58h.23c.61-.02 1.23-.04 1.85-.04h.01.13c.85 0 1.71.02 2.56.07.91.04 1.81.11 2.71.19.07 0 .14 0 .21.02h.04c.98.09 1.95.21 2.91.35.16.02.32.04.48.07.98.14 1.94.31 2.88.48.18.03.36.07.53.1 1.04.2 2.05.41 3.02.64.11.03.22.05.33.08 1.2.28 2.34.57 3.4.86s-1.74 13.61-1.74 13.61c-.71-.4-1.71-.85-2.88-1.29-.03-.01-.05-.02-.08-.03-.15-.06-.3-.11-.45-.17-.14-.05-.27-.1-.42-.15-.05-.02-.1-.03-.15-.05-2.39-.82-5.31-1.58-8.12-1.93-.14-.02-.28-.03-.42-.05-.17-.02-.35-.04-.52-.06-.74-.07-1.46-.11-2.15-.11-.29 0-.56 0-.84.02-.06 0-.12 0-.18 0-.2.01-.4.03-.59.05-.07 0-.13.01-.2.02-.23.03-.45.06-.66.1-.06.01-.12.02-.18.04-.15.03-.3.06-.44.1-.08.02-.16.04-.25.07-.11.03-.22.06-.32.1-.08.02-.15.05-.22.08-.1.04-.21.08-.3.12-.06.03-.12.05-.18.08-.11.05-.21.1-.31.16-.04.02-.08.05-.12.07-.11.06-.21.13-.3.2-.02.02-.05.03-.07.05-.1.07-.19.15-.28.23-.01.01-.03.03-.04.04-.09.08-.17.17-.25.26-.01.01-.02.03-.03.04-.07.09-.14.18-.21.28 0 .01-.02.03-.02.04-.17.26-.29.52-.38.79-.02.07-.05.15-.07.22-.01.05-.03.11-.04.16-.03.12-.05.25-.06.38v.03.01c-.02.21 0 .4.03.58 0 .06.02.11.04.16.03.14.08.28.15.41.02.04.04.09.06.13.09.16.2.31.33.45.04.04.08.08.13.12.11.1.23.2.36.3.06.04.11.08.18.12.18.12.37.23.58.33.03.02.07.03.1.05.21.1.43.19.66.28.08.03.16.06.24.09.22.08.45.16.69.23.05.02.1.03.16.05.31.09.63.18.96.26.05.01.11.03.16.04.31.07.62.15.95.22.05.01.11.02.16.04.77.17 1.58.32 2.44.49.35.07.7.13 1.06.2.14.03.28.05.42.08.32.06.64.12.96.19.21.04.42.08.63.13.1.02.21.04.31.07 7.65 1.58 16.45 4.37 17.97 14.25.03.21.06.42.09.64.04.32.08.64.1.98.03.48.05.98.05 1.5v.54z"/><path d="m33.95 161.28-15.4 6.6 5.65-14.82-13.74-6.64 17.64-4.94 7.58-14.73 7.43 13.26 16.34 2.92-12.86 9.58 1.89 17.37z" fill="#fff"/><path d="m35.76 130.97 5.14 9.19.92 1.65 1.86.33 10.87 1.95-8.24 6.14-1.83 1.37.25 2.27 1.33 12.26-10.22-6.05-1.75-1.03-1.87.8-10.13 4.34 3.32-8.69 1.31-3.43-3.31-1.6-7.33-3.54 11.71-3.28 1.68-.47.8-1.55 5.48-10.65m-.14-8.46-8.89 17.27-21.88 6.13 16.85 8.14-6.69 17.51 18.81-8.06 17.09 10.12-2.19-20.2 15.65-11.66-19.96-3.57-8.78-15.69z" fill="#38a5f5"/><path d="m35.67 126.15 7.61 13.6 16.86 3.02-13.26 9.87 1.93 17.77-14.89-8.82-15.88 6.81 5.8-15.2-14.18-6.86 18.24-5.11 7.77-15.09m-.12-7.25-2.93 5.69-7.08 13.76-16.79 4.7-8.74 2.45 8.17 3.95 11.34 5.48-4.68 12.25-2.89 7.58 7.46-3.2 14.28-6.12 13.39 7.93 5.91 3.5-.74-6.82-1.72-15.82 11.68-8.7 6.36-4.74-7.81-1.4-15.26-2.73-6.82-12.19-3.12-5.58z"/><path d="m280.94 24-2.66-.51-.52-2.65-1.21-6.09-6 9.07-.83 1.25-1.43.4-8.47 2.35 4.63 2.24 3.9 1.89-2.19 3.74-2.35 4.01 4.7-2.01 1.95-.84 1.78 1.15 8.59 5.5v-10.46-2l1.62-1.2 5.94-4.43z" fill="#fff"/><path d="m280.22 21.54-2.5-12.68-9.43 14.23-14.92 4.15 11.76 5.69-6.81 11.6 11.92-5.11 12.87 8.25v-15.49l10.81-8.05-13.71-2.59zm.61 9.5v12.47l-8.59-5.5-1.79-1.14-1.95.84-4.7 2.02 2.35-4.01 2.19-3.74-3.9-1.89-4.64-2.24 8.47-2.36 1.44-.4.82-1.24 6.01-9.07 1.2 6.09.52 2.65 2.66.5 7.46 1.41-5.95 4.43-1.61 1.2z" fill="#38a5f5"/><path d="m283.14 18.59-3.67-18.59-13.34 20.13-22.45 6.24 16.6 8.03-10.21 17.41 19.85-8.51 16.62 10.65v-20.05l15.7-11.69-19.12-3.62zm-.02 29.08-12.87-8.25-11.92 5.11 6.81-11.6-11.76-5.69 14.92-4.15 9.43-14.23 2.5 12.68 13.71 2.59-10.81 8.05v15.49z"/><path d="m364.89 145.78-35.95-22.94.75-40.63-27.75 27.52-30.56-11.49 15.34 35.27-17.93 32.17 37.73-2.92 24.91 31.23-1.44-41.23zm-56.6 12.89-32.5 2.52 15.31-27.47-12.4-28.53 24.22 9.11 22.66-22.47-.61 33.14 29.56 18.87-28.59 5.72 1.14 32.67-18.79-23.55z"/><path d="m322.56 146.88 4.17-.83 19.16-3.83-21.88-13.97-2.36-1.5.05-2.8.44-24.1-16.13 16-2.28 2.26-3-1.13-15.93-5.99 8.97 20.64.99 2.27-1.21 2.16-11.91 21.38 25.49-1.97 2.64-.2 1.65 2.07 12.03 15.08-.74-21.29z" fill="#fff"/><path d="m354.53 143.83-29.56-18.87.61-33.14-22.66 22.47-24.22-9.11 12.4 28.53-15.31 27.47 32.5-2.52 18.79 23.55-1.14-32.67 28.59-5.72zm-72.89 13.61 11.92-21.38 1.2-2.16-.99-2.27-8.98-20.64 15.93 5.99 3 1.13 2.28-2.26 16.14-16-.44 24.09-.05 2.8 2.36 1.51 21.88 13.96-19.17 3.83-4.16.83.15 4.24.74 21.29-12.03-15.08-1.65-2.07-2.64.2-25.49 1.97z" fill="#38a5f5"/><g fill="#fff"><path d="m31.8 288.19-.19 5.83c-.63-.61-1.85-1-3.18-1-1.07 0-1.51.23-1.51.91 3.64 0 5.27 1.45 5.27 5.02 0 3.82-1.84 5.31-6.62 5.31-1.77 0-3.5-.2-5.46-.65l.21-6.08c.73.63 2.13 1.04 3.6 1.04 1.14 0 1.6-.23 1.6-.93-3.79 0-5.44-1.38-5.44-4.86 0-3.75 1.85-5.25 6.67-5.25 1.77 0 3.45.2 5.05.66z"/><path d="m38.4 289.8h2.09v5.47h-2.09v1.4c0 .66.21.9.85.9.39 0 .8-.09 1.24-.32v6.56c-1.07.34-1.7.45-2.69.45-3.71 0-5.08-1.61-5.08-5.85v-10.42h5.68z"/><path d="m49.74 289.46v6.92c-.29-.12-.76-.14-.97-.14-1.19 0-1.65.84-1.65 2.51v5.06h-5.71v-14.02h4.9l.05 2.51h.03c.27-2.06 1.41-2.96 2.58-2.96.19 0 .53.02.76.12z"/><path d="m62.04 296.38v4.34c0 1.35.05 2.17.17 3.09h-5.36l-.22-1.27h-.03c-.68 1.13-1.8 1.72-3.28 1.72-2.19 0-3.26-1.29-3.26-3.93s1.14-4.02 3.49-4.02c1.07 0 2.11.27 2.77.72h.03v-.04c0-1.15-.77-1.67-2.47-1.67-1.36 0-2.65.34-3.37.9l-.17-6.31c1.46-.36 3.2-.57 4.9-.57 5.06 0 6.8 1.79 6.8 7.03zm-6.83 3.59c0 .88.17 1.15.65 1.15.2 0 .36-.05.49-.18v-1.94c-.14-.14-.29-.18-.49-.18-.48 0-.65.27-.65 1.15z"/><path d="m73.72 300.24c-.59 3.87-2.38 5.61-6.24 5.61-1.31 0-3.08-.2-4.28-.68l-.17-5.88c1.02.57 2.07.81 3.23.81 1.34 0 1.91-.34 2.23-1.11h-.03c-.61.16-1.17.2-1.8.2-2.52 0-3.23-.7-3.69-3.78l-.81-5.63h5.95l.36 6.33c.02.25.1.36.26.36.07 0 .15-.02.24-.07l.41-6.62h5.87l-1.5 10.44z"/><path d="m85.09 298.07v5.74h-6.36v-15.82h6.36v5.72h.51l.92-5.72h6.65l-1.8 7.89 1.91 7.93h-6.75l-.92-5.74h-.51z"/><path d="m99.44 290.34c0 1.9-.94 2.8-2.93 2.8s-2.92-.91-2.92-2.8.94-2.8 2.92-2.8 2.93.91 2.93 2.8zm-.09 13.48h-5.68v-10.51c.8.45 1.73.68 2.84.68s2.06-.22 2.84-.68z"/><path d="m112.89 300.72c0 1.35.05 2.17.17 3.09h-5.59l-.12-1.85h-.03c-.7 1.56-1.77 2.3-3.23 2.3-2.69 0-4.03-2.51-4.03-7.35s1.48-7.57 4.47-7.57c1.1 0 1.97.34 2.65 1.04h.03v-2.4h5.68v12.73zm-6.9-3.91c0 1.38.19 1.88.72 1.88.2 0 .37-.07.51-.2v-3.35c-.14-.14-.3-.2-.51-.2-.53 0-.72.49-.72 1.88z"/><path d="m124.02 289.91-.17 5.31c-.53-.54-1.58-.91-2.79-.91-1.07 0-1.46.2-1.46.73 3.21 0 4.79 1.38 4.79 4.25 0 3.71-1.55 4.97-5.97 4.97-1.36 0-2.94-.18-4.77-.56l.17-5.54c.63.59 1.87.97 3.18.97 1.07 0 1.53-.18 1.53-.77-3.31 0-4.95-1.31-4.95-4.05 0-3.71 1.55-4.97 5.97-4.97 1.45 0 2.94.18 4.47.57z"/><path d="m302.59 292.33c0 3.64-1.87 4.54-4.63 4.93-.98.14-1.46.27-1.46.86h5.74v5.7h-11.46v-3.05c0-4.14 1.67-6.01 5.1-6.78.54-.11.78-.18.78-.41 0-.18-.31-.25-1.02-.25-1.67 0-3.31.36-4.4.93l-.17-6.04c1.92-.5 3.42-.68 5.9-.68 4.01 0 5.61 1.38 5.61 4.8z"/><path d="m316.18 295.9c0 5.93-1.92 8.36-6.6 8.36s-6.6-2.44-6.6-8.36 1.92-8.36 6.6-8.36 6.6 2.44 6.6 8.36zm-7.27 0c0 2.28.12 2.78.67 2.78s.66-.5.66-2.78-.12-2.78-.66-2.78-.67.5-.67 2.78z"/><path d="m328.33 292.33c0 3.64-1.87 4.54-4.63 4.93-.98.14-1.46.27-1.46.86h5.74v5.7h-11.46v-3.05c0-4.14 1.67-6.01 5.1-6.78.54-.11.78-.18.78-.41 0-.18-.31-.25-1.02-.25-1.67 0-3.31.36-4.4.93l-.17-6.04c1.92-.5 3.42-.68 5.9-.68 4.01 0 5.61 1.38 5.61 4.8z"/><path d="m340.34 301.78v2.03h-5.68v-2.03h-6.16v-4.97l3.62-8.82h8.21v8.36h.68v5.43h-.68zm-6.65-5.2h1.19l.31-4.18h-.43z"/><path d="m140.02 293.82h-4.57v1.2h4.23v5.4h-4.23v3.39h-6.36v-15.82h10.93z"/><path d="m152.72 296.38v4.34c0 1.35.05 2.17.17 3.09h-5.36l-.22-1.27h-.03c-.68 1.13-1.8 1.72-3.28 1.72-2.19 0-3.26-1.29-3.26-3.93s1.14-4.02 3.49-4.02c1.07 0 2.11.27 2.77.72h.03v-.04c0-1.15-.77-1.67-2.47-1.67-1.36 0-2.65.34-3.37.9l-.17-6.31c1.46-.36 3.2-.57 4.9-.57 5.06 0 6.8 1.79 6.8 7.03zm-6.83 3.59c0 .88.17 1.15.65 1.15.2 0 .36-.05.49-.18v-1.94c-.14-.14-.29-.18-.49-.18-.48 0-.65.27-.65 1.15z"/><path d="m166.16 295v8.82h-5.68v-7.66c0-.9-.16-1.22-.6-1.22-.19 0-.37.07-.53.2v8.68h-5.68v-14.02h5.42l.12 1.86h.03c.75-1.61 1.82-2.31 3.49-2.31 2.48 0 3.42 1.56 3.42 5.65z"/><path d="m181.33 288.19-.2 7.08c-.78-.27-1.92-.45-2.91-.45-1.23 0-1.7.27-1.7 1.08s.47 1.09 1.7 1.09c1 0 2.13-.18 2.91-.45l.2 7.08c-1.51.49-2.62.65-3.96.65-5.29 0-7.48-2.44-7.48-8.36s2.19-8.36 7.48-8.36c1.34 0 2.45.16 3.96.66z"/><path d="m195.07 296.81c0 5.15-2.06 7.46-6.6 7.46s-6.6-2.3-6.6-7.46 2.06-7.46 6.6-7.46 6.6 2.31 6.6 7.46zm-7.26 0c0 1.47.16 1.88.66 1.88s.67-.41.67-1.88-.16-1.88-.67-1.88-.66.41-.66 1.88z"/><path d="m208.28 295v8.82h-5.68v-7.66c0-.9-.16-1.22-.6-1.22-.19 0-.37.07-.53.2v8.68h-5.68v-14.02h5.42l.12 1.86h.03c.75-1.61 1.82-2.31 3.49-2.31 2.48 0 3.42 1.56 3.42 5.65z"/><path d="m221.8 295v8.82h-5.68v-7.66c0-.9-.16-1.22-.6-1.22-.19 0-.37.07-.53.2v8.68h-5.68v-14.02h5.42l.12 1.86h.03c.75-1.61 1.82-2.31 3.49-2.31 2.48 0 3.42 1.56 3.42 5.65z"/><path d="m234.48 294.86c0 .72-.07 1.72-.15 2.08h-5.9c.08.88.7 1.15 2.24 1.15 1.19 0 2.06-.16 3.21-.54l.17 6.15c-1.26.36-2.67.56-4.25.56-5.2 0-7.35-2.21-7.35-7.55s1.96-7.37 6.36-7.37c3.88 0 5.66 1.74 5.66 5.52zm-6.11.32h1.43c-.02-1.45-.17-1.86-.71-1.86s-.7.41-.72 1.86z"/><path d="m244.97 289.91-.17 6.44c-.59-.27-1.6-.43-2.6-.43-1.14 0-1.48.2-1.48.88s.36.88 1.48.88c1 0 2.01-.16 2.6-.43l.17 6.44c-1.31.41-2.29.56-3.55.56-4.68 0-6.63-2.19-6.63-7.46s1.96-7.46 6.63-7.46c1.26 0 2.24.16 3.55.57z"/><path d="m251.42 289.8h2.09v5.47h-2.09v1.4c0 .66.21.9.85.9.39 0 .8-.09 1.24-.32v6.56c-1.07.34-1.7.45-2.69.45-3.71 0-5.08-1.61-5.08-5.85v-10.42h5.68z"/><path d="m260.16 290.34c0 1.9-.94 2.8-2.93 2.8s-2.92-.91-2.92-2.8.94-2.8 2.92-2.8 2.93.91 2.93 2.8zm-.08 13.48h-5.68v-10.51c.8.45 1.73.68 2.84.68s2.06-.22 2.84-.68z"/><path d="m273.63 295v8.82h-5.68v-7.66c0-.9-.16-1.22-.6-1.22-.19 0-.37.07-.53.2v8.68h-5.68v-14.02h5.42l.12 1.86h.03c.75-1.61 1.82-2.31 3.49-2.31 2.48 0 3.42 1.56 3.42 5.65z"/><path d="m286.68 298.55c0 5.56-1.72 7.3-7.14 7.3-1.75 0-2.96-.18-4.57-.7l-.16-5.88c.87.65 2.42 1.08 3.93 1.08 1.7 0 2.25-.57 2.25-2.26v-.07h-.03c-.46.91-1.41 1.38-2.79 1.38-2.6 0-3.89-1.7-3.89-4.86 0-3.41 1.51-5.2 4.22-5.2 1.32 0 2.5.43 3.4 1.25l.19-.79h4.61v8.75zm-6.84-3.5c0 .95.17 1.29.61 1.29.24 0 .39-.12.53-.39v-1.94c-.14-.14-.31-.2-.51-.2-.48 0-.63.34-.63 1.24z"/></g></svg>